<svg width="310" height="61" viewBox="0 0 310 61" fill="none" xmlns="http://www.w3.org/2000/svg">
<path d="M30.5991 16.13C30.5991 6.72438 37.2658 0 46.0051 0C54.7444 0 61.4171 6.72438 61.4171 16.13C61.4171 25.5356 54.7141 32.26 46.0051 32.26C37.2961 32.26 30.5991 25.5417 30.5991 16.13ZM52.0354 16.13C52.0354 11.8741 49.3566 9.18675 45.9748 9.18675C42.593 9.18675 39.9142 11.8741 39.9142 16.13C39.9142 20.3859 42.593 23.0793 45.9748 23.0793C49.3566 23.0793 52.0354 20.3859 52.0354 16.13Z" fill="#EB5757"/>
<path d="M99.1562 0.450012H109.653L116.58 14.1177H117.471V0.450012H126.853V31.8163H116.356L109.435 18.1669H108.538V31.8345H99.1562V0.450012Z" fill="#EB5757"/>
<path d="M132.883 0.450012H144.938C153.877 0.450012 160.574 7.16832 160.574 16.1301C160.574 25.0919 153.907 31.8163 144.938 31.8163H132.883V0.450012ZM145.162 22.6295C148.514 22.6295 151.223 19.9422 151.223 16.1301C151.223 12.318 148.544 9.63677 145.162 9.63677H142.259V22.6295H145.162Z" fill="#EB5757"/>
<path d="M179.557 0.450012H195.193C201.442 0.450012 206.357 4.93091 206.357 11.8742C206.357 17.6987 203.005 21.0609 198.987 22.4046L206.805 31.8163H195.636L188.939 22.8545V31.8163H179.557V0.450012ZM194.521 14.5615C195.187 14.4978 195.806 14.1872 196.256 13.6903C196.707 13.1933 196.956 12.5458 196.956 11.8742C196.956 11.2025 196.707 10.555 196.256 10.0581C195.806 9.56118 195.187 9.25054 194.521 9.18686H188.939V14.5615H194.521Z" fill="#EB5757"/>
<path d="M210.156 16.13C210.156 6.72438 216.853 0 225.562 0C234.271 0 240.974 6.72438 240.974 16.13C240.974 25.5356 234.271 32.26 225.562 32.26C216.853 32.26 210.156 25.5417 210.156 16.13ZM231.592 16.13C231.592 11.8741 228.914 9.18675 225.562 9.18675C222.211 9.18675 219.532 11.8741 219.532 16.13C219.532 20.3859 222.211 23.0793 225.562 23.0793C228.914 23.0793 231.592 20.3859 231.592 16.13Z" fill="#EB5757"/>
<path d="M244.769 16.13C244.769 6.72438 251.472 0 260.181 0C268.223 0 273.805 5.5996 274.92 13.2177H265.539C265.235 12.0352 264.539 10.9917 263.565 10.259C262.591 9.52631 261.398 9.14814 260.181 9.18676C256.83 9.18676 254.151 11.8741 254.151 16.13C254.151 20.386 256.83 23.0793 260.181 23.0793C263.084 23.0793 264.872 21.2858 265.539 18.8234H274.92C273.805 26.6665 268.223 32.2661 260.181 32.2661C251.472 32.26 244.769 25.5417 244.769 16.13Z" fill="#EB5757"/>
<path d="M0 46.0022H5.87269C6.39241 45.9844 6.91023 46.074 7.394 46.2654C7.87777 46.4568 8.31716 46.7459 8.68487 47.1148C9.05259 47.4836 9.34078 47.9244 9.53156 48.4097C9.72233 48.8951 9.81162 49.4145 9.79388 49.9359C9.82633 50.5803 9.67976 51.2211 9.3705 51.7868C9.06124 52.3526 8.60145 52.821 8.04237 53.14V53.2434C8.66458 53.5304 9.18505 54.0005 9.53468 54.5912C9.88432 55.182 10.0466 55.8654 9.99993 56.5509C10.0177 57.072 9.92842 57.5912 9.73759 58.0762C9.54675 58.5612 9.25846 59.0016 8.89064 59.37C8.52283 59.7384 8.08337 60.027 7.59962 60.2177C7.11587 60.4084 6.59817 60.4971 6.07875 60.4785H0.018181L0 46.0022ZM5.87269 52.6232C6.23559 52.6406 6.59822 52.5838 6.93862 52.4564C7.27902 52.329 7.5901 52.1336 7.85304 51.8821C8.11597 51.6306 8.32528 51.3281 8.46829 50.9931C8.61131 50.658 8.68504 50.2973 8.68504 49.9329C8.68504 49.5684 8.61131 49.2077 8.46829 48.8727C8.32528 48.5376 8.11597 48.2352 7.85304 47.9837C7.5901 47.7321 7.27902 47.5368 6.93862 47.4094C6.59822 47.282 6.23559 47.2252 5.87269 47.2425H1.23635V52.6232H5.87269ZM6.07875 59.2382C6.43399 59.25 6.78787 59.1886 7.11853 59.0578C7.44919 58.927 7.74961 58.7296 8.00122 58.4777C8.25283 58.2259 8.4503 57.925 8.58142 57.5935C8.71254 57.2621 8.77454 56.9073 8.76357 56.5509C8.79196 56.1902 8.74194 55.8276 8.61697 55.4882C8.49199 55.1489 8.29505 54.8408 8.03975 54.5852C7.78444 54.3297 7.47688 54.1328 7.1383 54.0082C6.79972 53.8836 6.43821 53.8342 6.07875 53.8635H1.23029V59.2382H6.07875Z" fill="#EB5757"/>
<path d="M25.0078 46H26.2199V60.4763H25.0078V46Z" fill="#EB5757"/>
<path d="M41.2197 53.4479C41.2197 48.9974 44.2076 46 48.0197 46C49.4516 46.0107 50.8406 46.4923 51.9736 47.3709C53.1066 48.2494 53.9211 49.4765 54.2924 50.8639H52.953C52.6195 49.8091 51.961 48.8877 51.0724 48.2321C50.1837 47.5766 49.1106 47.2208 48.0076 47.216C44.9167 47.216 42.444 49.6966 42.444 53.4236C42.444 57.1506 44.9167 59.6251 48.0076 59.6251C49.1212 59.6212 50.2039 59.257 51.0948 58.5867C51.9858 57.9164 52.6374 56.9756 52.953 55.9042H54.2924C53.9313 57.3077 53.1207 58.5534 51.9853 59.4497C50.8498 60.3461 49.4523 60.8435 48.0076 60.8654C44.2076 60.8897 41.2197 57.8923 41.2197 53.4479Z" fill="#EB5757"/>
<path d="M74.65 55.0408L69.2925 46H70.6743L75.0803 53.4479H75.4924L79.8864 46H81.2682L75.9046 55.0408V60.4763H74.6924L74.65 55.0408Z" fill="#EB5757"/>
<path d="M96.2681 53.4479C96.2681 48.9974 99.2559 46 103.068 46C104.503 46.0068 105.896 46.4865 107.033 47.3653C108.17 48.2442 108.987 49.4735 109.359 50.8639H108.02C107.685 49.8087 107.025 48.887 106.136 48.2315C105.246 47.576 104.172 47.2205 103.068 47.216C99.9771 47.216 97.5044 49.6966 97.5044 53.4236C97.5044 57.1506 99.9771 59.6251 103.068 59.6251C104.183 59.6225 105.267 59.2589 106.159 58.5885C107.051 57.9181 107.704 56.9766 108.02 55.9042H109.359C108.997 57.3082 108.185 58.554 107.048 59.4503C105.912 60.3466 104.513 60.8438 103.068 60.8654C99.2559 60.8897 96.2681 57.8923 96.2681 53.4479Z" fill="#EB5757"/>
<path d="M124.359 46H125.571V59.2359H132.995V60.4519H124.359V46Z" fill="#EB5757"/>
<path d="M148.013 46H157.104V47.216H149.25V52.5967H156.674V53.8127H149.25V59.1873H157.086V60.4033H147.995L148.013 46Z" fill="#EB5757"/>
<path d="M180 46H185.976C188.448 46 190.218 47.7571 190.218 50.3471C190.218 53.0344 188.364 54.7915 185.976 54.7915H184.533L190.509 60.4763H188.861L182.885 54.7915H181.236V60.4763H180.024L180 46ZM185.976 53.5513C187.727 53.5513 188.964 52.3353 188.964 50.3471C188.992 49.9411 188.935 49.5337 188.796 49.1513C188.657 48.7689 188.44 48.4199 188.159 48.127C187.877 47.8341 187.537 47.6039 187.161 47.4511C186.785 47.2984 186.381 47.2265 185.976 47.2403H181.236V53.5513H185.976Z" fill="#EB5757"/>
<path d="M205.527 46H214.618V47.216H206.764V52.5967H214.188V53.8127H206.764V59.1873H214.6V60.4033H205.509L205.527 46Z" fill="#EB5757"/>
<path d="M229.618 46H235.594C236.168 45.9994 236.736 46.1156 237.263 46.3415C237.791 46.5675 238.268 46.8985 238.664 47.3145C239.061 47.7306 239.369 48.223 239.571 48.762C239.772 49.301 239.863 49.8755 239.836 50.4505C239.871 51.0223 239.785 51.595 239.585 52.1316C239.385 52.6682 239.075 53.1568 238.676 53.5658C238.276 53.9749 237.795 54.2953 237.264 54.5065C236.734 54.7176 236.164 54.8147 235.594 54.7916H230.855V60.4763H229.642L229.618 46ZM235.594 53.5513C235.999 53.5658 236.403 53.4948 236.78 53.3428C237.156 53.1908 237.496 52.9612 237.778 52.6689C238.061 52.3766 238.278 52.0281 238.418 51.646C238.557 51.2638 238.615 50.8565 238.588 50.4505C238.588 48.4806 237.345 47.2403 235.594 47.2403H230.855V53.5513H235.594Z" fill="#EB5757"/>
<path d="M260.28 46H262.135L267.589 60.4763H266.377L264.892 56.5486H257.541L256.056 60.4763H254.844L260.28 46ZM264.407 55.3083L261.413 47.3437H261.001L258.013 55.3083H264.407Z" fill="#EB5757"/>
<path d="M0 0.450012H15.6363C21.8847 0.450012 26.7998 4.93091 26.7998 11.8742C26.7998 17.6987 23.4483 21.0609 19.4302 22.4046L27.2483 31.8163H16.0787L9.38176 22.8545V31.8163H0V0.450012ZM14.9575 14.5615C15.624 14.4978 16.2429 14.1872 16.6933 13.6903C17.1437 13.1933 17.3933 12.5458 17.3933 11.8742C17.3933 11.2025 17.1437 10.555 16.6933 10.0581C16.2429 9.56118 15.624 9.25054 14.9575 9.18686H9.38176V14.5615H14.9575Z" fill="#EB5757"/>
<path d="M66.1016 18.3736V0.450012H75.4833V18.3736C75.4833 21.2859 77.2712 23.0794 79.7257 23.0794C82.1802 23.0794 83.9681 21.2859 83.9681 18.3736V0.450012H93.3438V18.3736C93.3438 26.8855 87.9863 32.2601 79.7197 32.2601C71.453 32.2601 66.1016 26.8855 66.1016 18.3736Z" fill="#EB5757"/>
<path d="M279.834 0.450012H289.21V13.2178L295.913 0.450012H306.634L298.15 15.9052L307.531 31.8163H296.804L289.21 18.3736V31.8163H279.834V0.450012Z" fill="#EB5757"/>
<path d="M282.589 46H283.801V60.4763H282.589V46Z" fill="#EB5757"/>
<path d="M298.801 46H304.777C307.25 46 309.019 47.7571 309.019 50.3471C309.019 53.0344 307.165 54.7915 304.777 54.7915H303.335L309.31 60.4763H307.686L301.71 54.7915H300.062V60.4763H298.85L298.801 46ZM304.777 53.5513C306.529 53.5513 307.765 52.3353 307.765 50.3471C307.793 49.9411 307.736 49.5337 307.597 49.1513C307.459 48.7689 307.241 48.4199 306.96 48.127C306.678 47.8341 306.338 47.6039 305.962 47.4511C305.586 47.2984 305.182 47.2265 304.777 47.2403H300.038V53.5513H304.777Z" fill="#EB5757"/>
</svg>
