<svg width="90" height="61" viewBox="0 0 90 61" fill="none" xmlns="http://www.w3.org/2000/svg">
<path d="M88.1823 51.8038L87.8936 51.6548C87.3663 51.3849 86.9314 50.9631 86.6448 50.4435C86.3582 49.9239 86.2329 49.3302 86.2851 48.7386C86.4716 46.6018 86.4932 44.4537 86.3494 42.3136C86.3059 41.7269 86.436 41.1404 86.7233 40.6275C87.0106 40.1147 87.4424 39.6983 87.9646 39.4305L88.3737 39.2219C88.9548 38.9262 89.4234 38.4476 89.7076 37.8594C89.9919 37.2711 90.0762 36.6056 89.9476 35.9648C89.7639 35.0512 89.55 34.1376 89.3058 33.224C89.126 32.5404 88.9264 31.8635 88.7185 31.1949C88.5181 30.5649 88.1151 30.0193 87.5727 29.6435C87.0304 29.2677 86.3791 29.0828 85.7208 29.1178L85.3645 29.136C84.7733 29.1698 84.1855 29.0256 83.6766 28.7219C83.1677 28.4181 82.761 27.9686 82.5087 27.4312C81.5954 25.4746 80.5302 23.5931 79.3229 21.804C78.9986 21.3176 78.8242 20.7462 78.8216 20.1611C78.819 19.576 78.9881 19.003 79.308 18.5137L79.5407 18.1562C79.8982 17.6047 80.0647 16.9504 80.0146 16.2944C79.9646 15.6384 79.7006 15.0172 79.2635 14.5267C78.1758 13.3028 77.0231 12.1388 75.8105 11.0394C75.3225 10.5957 74.7021 10.3262 74.0456 10.2729C73.3892 10.2196 72.7336 10.3856 72.1809 10.7448L71.8674 10.9484C71.3761 11.2719 70.8 11.4413 70.2124 11.4351C69.6247 11.4289 69.0522 11.2474 68.5678 10.9137C66.8056 9.69203 64.9518 8.60914 63.0229 7.67469C62.4999 7.41564 62.0646 7.00784 61.7712 6.50218C61.4778 5.99652 61.3393 5.41539 61.373 4.83129L61.3928 4.41752C61.4282 3.7602 61.2464 3.10954 60.8757 2.56642C60.5049 2.0233 59.9659 1.61807 59.3421 1.41357C57.7789 0.894206 56.1889 0.459401 54.5792 0.111033C53.9352 -0.0294353 53.2631 0.048205 52.6678 0.331805C52.0726 0.615405 51.5878 1.08896 51.2895 1.67838L51.1096 2.02595C50.8444 2.5507 50.4303 2.98493 49.9194 3.27388C49.4085 3.56282 48.8238 3.69355 48.239 3.64957C46.141 3.48541 44.0335 3.48265 41.9351 3.64129C41.3513 3.68281 40.7684 3.55038 40.2594 3.26063C39.7504 2.97089 39.3382 2.53674 39.0743 2.01271L38.8846 1.63866C38.5883 1.05139 38.107 0.578736 37.5154 0.294114C36.9238 0.00949175 36.255 -0.0711591 35.613 0.0646909C34.8585 0.223577 34.1029 0.402876 33.3462 0.602588L33.1812 0.647275C32.3706 0.867951 31.5721 1.10463 30.7857 1.3573C30.1609 1.56106 29.6206 1.96583 29.2483 2.50891C28.8761 3.05199 28.6928 3.70306 28.7268 4.36125L28.7482 4.77667C28.7801 5.36374 28.6381 5.94715 28.3401 6.45342C28.0421 6.95969 27.6015 7.36619 27.0737 7.62173C25.2169 8.51219 23.43 9.54238 21.7283 10.7035C21.2431 11.0319 20.672 11.2091 20.0867 11.213C19.5014 11.2168 18.928 11.047 18.4386 10.725L18.0921 10.5015C17.5408 10.1404 16.8858 9.9724 16.2294 10.0236C15.5729 10.0748 14.9517 10.3423 14.4626 10.7846C13.2064 11.9148 12.0134 13.1138 10.8891 14.3761C10.4523 14.8665 10.1881 15.4873 10.1371 16.1431C10.0861 16.7988 10.2512 17.4532 10.607 18.0056L10.8314 18.3515C11.1535 18.8442 11.3228 19.4217 11.3178 20.0109C11.3128 20.6001 11.1338 21.1746 10.8033 21.6617C9.66676 23.3262 8.65327 25.072 7.77098 26.8851C7.51286 27.4094 7.10662 27.8459 6.6029 28.1402C6.09917 28.4345 5.52025 28.5736 4.93827 28.5401L4.50603 28.517C3.85176 28.483 3.20451 28.6657 2.6638 29.0368C2.12308 29.4079 1.71886 29.9469 1.51329 30.5709C0.973889 32.1955 0.523914 33.8487 0.165397 35.5229C0.0256025 36.1702 0.103006 36.8458 0.385565 37.4444C0.668124 38.0431 1.13999 38.5312 1.72776 38.833L2.07917 39.0118C2.60249 39.2783 3.03537 39.6944 3.32313 40.2075C3.61089 40.7206 3.74063 41.3078 3.69597 41.8949C3.54385 43.8816 3.53448 45.8767 3.66793 47.8647C3.70535 48.4477 3.5711 49.0288 3.28187 49.5359C2.99265 50.0429 2.56121 50.4534 2.04122 50.7164L1.63702 50.9233C1.05743 51.2184 0.589647 51.6952 0.304697 52.2812C0.0197466 52.8673 -0.0668125 53.5306 0.0581601 54.1705C0.246238 55.0974 0.462911 56.022 0.708182 56.9444C0.909458 57.6991 1.12943 58.445 1.3681 59.1821C1.60315 59.9237 2.1192 60.543 2.80508 60.9066H10.6251C9.7357 58.9576 9.01162 56.9368 8.4606 54.8656C3.08555 34.6573 15.0994 13.82 35.2435 8.42775L35.3804 8.39299C55.4833 3.09678 76.1668 15.1374 81.532 35.2978C83.8146 43.8267 83.0446 52.8884 79.3559 60.9066H87.7963C88.0677 60.6076 88.2745 60.2554 88.4034 59.8722C88.933 58.3134 89.3791 56.7272 89.7397 55.1205C89.8839 54.4727 89.809 53.7952 89.5271 53.1947C89.2451 52.5942 88.772 52.1048 88.1823 51.8038Z" fill="#EB5757"/>
<path d="M27.1056 60.9231C25.1282 60.9233 23.1787 60.4548 21.4161 59.5558C19.6534 58.6568 18.1274 57.3528 16.9624 55.7499C15.7974 54.147 15.0264 52.2907 14.7122 50.3322C14.398 48.3737 14.5495 46.3685 15.1543 44.4799C15.7591 42.5913 16.8002 40.8727 18.1927 39.4643C19.5852 38.0559 21.2896 36.9974 23.1672 36.3752C25.0448 35.7529 27.0423 35.5845 28.9971 35.8836C30.9519 36.1827 32.8085 36.9409 34.4158 38.0964C34.6676 38.2777 34.8373 38.5519 34.8876 38.8588C34.9379 39.1656 34.8646 39.4799 34.6839 39.7325C34.5032 39.9851 34.2299 40.1553 33.924 40.2058C33.6182 40.2562 33.3049 40.1827 33.0531 40.0014C31.0768 38.5846 28.6612 37.9221 26.2413 38.1331C23.8213 38.3441 21.5559 39.4148 19.8529 41.1523C18.1499 42.8899 17.121 45.1803 16.9516 47.6112C16.7822 50.0421 17.4834 52.4538 18.9288 54.4122C20.3743 56.3706 22.4691 57.7471 24.8363 58.2938C27.2034 58.8406 29.6874 58.5217 31.841 57.3945C33.9946 56.2674 35.6764 54.4061 36.5837 52.1456C37.4909 49.8851 37.5641 47.374 36.7899 45.0643C36.6933 44.7699 36.7167 44.4492 36.855 44.1721C36.9933 43.8949 37.2353 43.684 37.5281 43.5852C37.8209 43.4864 38.1408 43.5078 38.4179 43.6448C38.695 43.7817 38.9069 44.0231 39.0072 44.3162C39.6402 46.2104 39.8151 48.2285 39.5176 50.2039C39.2201 52.1794 38.4587 54.0555 37.2962 55.6776C36.1337 57.2998 34.6034 58.6214 32.8315 59.5334C31.0597 60.4454 29.097 60.9218 27.1056 60.9231Z" fill="#EB5757"/>
<path d="M61.8094 60.9232C59.6891 60.9221 57.5983 60.4247 55.7034 59.4703C53.8085 58.516 52.1618 57.1312 50.8943 55.426C49.6268 53.7209 48.7735 51.7425 48.4023 49.6483C48.0311 47.5541 48.1523 45.4018 48.7562 43.3629C48.8538 43.0769 49.0577 42.8397 49.3254 42.7008C49.5931 42.5619 49.9039 42.532 50.193 42.6174C50.4822 42.7028 50.7273 42.8968 50.8773 43.159C51.0273 43.4212 51.0706 43.7314 50.9982 44.0249C50.2199 46.6248 50.399 49.4187 51.5029 51.8971C52.6068 54.3755 54.562 56.3734 57.0118 57.5262C59.4616 58.6791 62.2428 58.9102 64.8483 58.1773C67.4538 57.4445 69.7099 55.7966 71.2052 53.5341C72.7005 51.2717 73.3354 48.5454 72.9941 45.8525C72.6527 43.1596 71.3579 40.6795 69.3457 38.8645C67.3335 37.0495 64.7381 36.0205 62.0327 35.9652C59.3273 35.9099 56.6922 36.8319 54.608 38.5632C54.367 38.7349 54.0701 38.8088 53.777 38.7698C53.4839 38.7309 53.2164 38.582 53.0283 38.3532C52.8402 38.1245 52.7454 37.8327 52.763 37.5367C52.7806 37.2406 52.9093 36.9622 53.1232 36.7575C54.8051 35.3566 56.7986 34.3827 58.935 33.918C61.0714 33.4533 63.288 33.5116 65.3972 34.0879C67.5064 34.6642 69.4463 35.7415 71.0528 37.2289C72.6592 38.7162 73.8851 40.5697 74.6266 42.6327C75.3682 44.6957 75.6036 46.9075 75.313 49.0811C75.0224 51.2546 74.2143 53.3261 72.9571 55.1201C71.6999 56.9142 70.0305 58.3782 68.0901 59.3882C66.1498 60.3983 63.9954 60.9248 61.8094 60.9232Z" fill="#EB5757"/>
<path d="M29.3661 48.6045C29.1274 48.6045 28.8944 48.5313 28.6983 48.3946C28.5023 48.2579 28.3527 48.0643 28.2695 47.8398C28.1864 47.6153 28.1737 47.3707 28.2332 47.1387C28.2926 46.9068 28.4214 46.6986 28.6022 46.5423L40.009 36.683L35.2773 35.1554C35.1261 35.1125 34.9851 35.0395 34.8626 34.9408C34.7402 34.842 34.6388 34.7195 34.5646 34.5806C34.4904 34.4416 34.4448 34.2891 34.4306 34.1321C34.4164 33.9751 34.4339 33.8169 34.4821 33.6668C34.5302 33.5168 34.6079 33.378 34.7107 33.2588C34.8135 33.1395 34.9391 33.0423 35.0802 32.9728C35.2212 32.9034 35.3748 32.8631 35.5317 32.8545C35.6886 32.8459 35.8456 32.8691 35.9934 32.9227L44.6911 35.7363L30.1267 48.3281C29.9141 48.5083 29.6444 48.6063 29.3661 48.6045Z" fill="#EB5757"/>
<path d="M59.722 44.0894C59.6063 44.0893 59.4912 44.072 59.3805 44.0381L43.9004 39.3046L52.9578 30.8191C53.1865 30.6192 53.4836 30.5162 53.7865 30.5318C54.0894 30.5475 54.3744 30.6806 54.5814 30.903C54.7884 31.1255 54.9011 31.4199 54.8959 31.7241C54.8906 32.0284 54.7677 32.3186 54.5532 32.5337L48.4489 38.2454L60.0536 41.7938C60.3208 41.8758 60.5499 42.0509 60.6995 42.2876C60.8491 42.5243 60.9093 42.8069 60.8693 43.0843C60.8292 43.3617 60.6915 43.6155 60.4811 43.7999C60.2706 43.9842 60.0014 44.0869 59.722 44.0894Z" fill="#EB5757"/>
<path d="M28.5988 34.0333C28.3354 34.0331 28.0797 33.9438 27.8732 33.7798C27.6667 33.6157 27.5215 33.3866 27.461 33.1294C27.4005 32.8722 27.4282 32.6021 27.5398 32.3627C27.6514 32.1234 27.8403 31.9288 28.0758 31.8105C32.1888 29.7566 42.2278 26.4183 49.6206 25.753C49.7734 25.7396 49.9274 25.7566 50.0737 25.8029C50.22 25.8492 50.3558 25.924 50.4733 26.023C50.5908 26.122 50.6877 26.2432 50.7585 26.3797C50.8293 26.5163 50.8726 26.6655 50.886 26.8188C50.8993 26.9722 50.8824 27.1266 50.8362 27.2734C50.79 27.4202 50.7155 27.5564 50.6168 27.6743C50.5181 27.7922 50.3973 27.8894 50.2612 27.9604C50.1251 28.0315 49.9763 28.0749 49.8235 28.0883C42.7128 28.7288 33.0632 31.938 29.1119 33.9108C28.9526 33.9908 28.7769 34.0327 28.5988 34.0333Z" fill="#EB5757"/>
<path d="M23.2501 31.4811C22.9859 31.4806 22.7296 31.3903 22.523 31.2251C22.3164 31.0598 22.1717 30.8293 22.1124 30.571C22.0531 30.3127 22.0827 30.0418 22.1964 29.8026C22.3101 29.5633 22.5012 29.3697 22.7386 29.2533C31.6723 24.8972 42.0578 23.1941 49.1965 22.5338C49.3494 22.5196 49.5035 22.5358 49.6501 22.5815C49.7967 22.6271 49.9329 22.7012 50.0509 22.7997C50.169 22.8981 50.2665 23.0189 50.338 23.1552C50.4096 23.2914 50.4536 23.4405 50.4677 23.5938C50.4818 23.7472 50.4656 23.9018 50.4201 24.0489C50.3746 24.1959 50.3007 24.3326 50.2026 24.451C50.1045 24.5694 49.9841 24.6673 49.8482 24.739C49.7124 24.8107 49.5638 24.8549 49.411 24.8691C42.467 25.5129 32.3784 27.1613 23.7566 31.3635C23.5986 31.4402 23.4255 31.4803 23.2501 31.4811Z" fill="#EB5757"/>
<path d="M61.215 20.8771C60.7347 20.2985 60.1262 19.8406 59.4382 19.5398C58.0837 18.9721 56.7572 18.464 52.6426 18.3266C51.2124 18.2883 49.7815 18.3691 48.3647 18.5683C48.0765 18.6287 47.8216 18.7961 47.6512 19.0369C47.4807 19.2778 47.4072 19.5743 47.4454 19.8672C47.4836 20.16 47.6306 20.4277 47.857 20.6165C48.0834 20.8053 48.3726 20.9013 48.6666 20.8854C50.3966 20.632 52.1505 20.5853 53.8915 20.7463C53.2936 21.4178 52.8936 22.2428 52.736 23.1292C52.5785 24.0156 52.6698 24.9285 52.9996 25.7659C53.3294 26.6032 53.8848 27.3321 54.6037 27.8711C55.3226 28.4101 56.1768 28.738 57.0707 28.8181C57.2175 28.8313 57.3644 28.838 57.5095 28.838C58.7169 28.8354 59.8797 28.3805 60.77 27.5623C61.6603 26.7442 62.2138 25.622 62.322 24.4156C62.3797 23.7817 62.3115 23.1426 62.1215 22.5352C61.9315 21.9279 61.6234 21.3643 61.215 20.8771ZM59.9925 24.2137C59.9493 24.6984 59.7666 25.16 59.4665 25.5423C59.1665 25.9246 58.7622 26.2112 58.3027 26.3671C57.8432 26.523 57.3485 26.5415 56.8787 26.4204C56.409 26.2992 55.9844 26.0437 55.6568 25.6849C55.3293 25.326 55.1128 24.8794 55.0337 24.3993C54.9546 23.9192 55.0164 23.4264 55.2115 22.981C55.4066 22.5355 55.7267 22.1565 56.1326 21.8902C56.5386 21.624 57.013 21.4818 57.498 21.4812C57.5722 21.4812 57.6481 21.4812 57.724 21.4911C58.3844 21.5512 58.994 21.8716 59.4193 22.382C59.8446 22.8923 60.0507 23.5511 59.9925 24.2137Z" fill="#EB5757"/>
</svg>
